<?xml version="1.0" encoding="utf-8"?>
<!-- Generator: Adobe Illustrator 26.5.0, SVG Export Plug-In . SVG Version: 6.00 Build 0)  -->
<svg version="1.1" id="Calque_1" xmlns="http://www.w3.org/2000/svg" xmlns:xlink="http://www.w3.org/1999/xlink" x="0px" y="0px"
	 viewBox="0 0 300 300" style="enable-background:new 0 0 300 300;" xml:space="preserve">
<style type="text/css">
	.st0{fill:#FFFFFF;}
	.st1{fill:#5C6E80;}
	.st2{fill:none;stroke:#5C6E80;stroke-width:23;stroke-linecap:round;stroke-miterlimit:7.3333;}
</style>
<rect class="st0" width="300" height="300"/>
<path class="st1" d="M288.5,161.5H11.5C5.2,161.5,0,156.4,0,150s5.2-11.5,11.5-11.5h276.9c6.4,0,11.5,5.2,11.5,11.5
	S294.8,161.5,288.5,161.5z"/>
<path class="st1" d="M150,300c-6.4,0-11.5-5.2-11.5-11.5V11.5C138.5,5.2,143.6,0,150,0s11.5,5.2,11.5,11.5v276.9
	C161.5,294.8,156.4,300,150,300z"/>
<line class="st2" x1="208.2" y1="45.8" x2="254.2" y2="91.8"/>
<line class="st2" x1="254.2" y1="45.8" x2="208.2" y2="91.8"/>
<line class="st2" x1="68.8" y1="38.1" x2="68.8" y2="99.4"/>
<line class="st2" x1="38.2" y1="68.8" x2="99.5" y2="68.8"/>
<line class="st2" x1="231.1" y1="203.1" x2="231.2" y2="203.1"/>
<line class="st2" x1="231.1" y1="259.4" x2="231.2" y2="259.4"/>
<line class="st2" x1="38.2" y1="231.2" x2="99.5" y2="231.2"/>
</svg>
